<svg width="223" height="50" viewBox="0 0 223 50" fill="none" xmlns="http://www.w3.org/2000/svg">
<path d="M86.5568 20.875H81.5795C81.4886 20.2311 81.303 19.6591 81.0227 19.1591C80.7424 18.6515 80.3826 18.2197 79.9432 17.8636C79.5038 17.5076 78.9962 17.2348 78.4205 17.0455C77.8523 16.8561 77.2348 16.7614 76.5682 16.7614C75.3636 16.7614 74.3144 17.0606 73.4205 17.6591C72.5265 18.25 71.8333 19.1136 71.3409 20.25C70.8485 21.3788 70.6023 22.75 70.6023 24.3636C70.6023 26.0227 70.8485 27.4167 71.3409 28.5455C71.8409 29.6742 72.5379 30.5265 73.4318 31.1023C74.3258 31.678 75.3598 31.9659 76.5341 31.9659C77.1932 31.9659 77.803 31.8788 78.3636 31.7045C78.9318 31.5303 79.4356 31.2765 79.875 30.9432C80.3144 30.6023 80.678 30.1894 80.9659 29.7045C81.2614 29.2197 81.4659 28.6667 81.5795 28.0455L86.5568 28.0682C86.428 29.1364 86.1061 30.1667 85.5909 31.1591C85.0833 32.1439 84.3977 33.0265 83.5341 33.8068C82.678 34.5795 81.6553 35.1932 80.4659 35.6477C79.2841 36.0947 77.947 36.3182 76.4545 36.3182C74.3788 36.3182 72.5227 35.8485 70.8864 34.9091C69.2576 33.9697 67.9697 32.6098 67.0227 30.8295C66.0833 29.0492 65.6136 26.8939 65.6136 24.3636C65.6136 21.8258 66.0909 19.6667 67.0455 17.8864C68 16.1061 69.2955 14.75 70.9318 13.8182C72.5682 12.8788 74.4091 12.4091 76.4545 12.4091C77.803 12.4091 79.053 12.5985 80.2045 12.9773C81.3636 13.3561 82.3902 13.9091 83.2841 14.6364C84.178 15.3561 84.9053 16.2386 85.4659 17.2841C86.0341 18.3295 86.3977 19.5265 86.5568 20.875ZM94.9716 36.3295C93.858 36.3295 92.8655 36.1364 91.9943 35.75C91.1231 35.3561 90.4337 34.7765 89.9261 34.0114C89.4261 33.2386 89.1761 32.2765 89.1761 31.125C89.1761 30.1553 89.3542 29.3409 89.7102 28.6818C90.0663 28.0227 90.5511 27.4924 91.1648 27.0909C91.7784 26.6894 92.4754 26.3864 93.2557 26.1818C94.0436 25.9773 94.8693 25.8333 95.733 25.75C96.7481 25.6439 97.5663 25.5455 98.1875 25.4545C98.8087 25.3561 99.2595 25.2121 99.5398 25.0227C99.8201 24.8333 99.9602 24.553 99.9602 24.1818V24.1136C99.9602 23.3939 99.733 22.8371 99.2784 22.4432C98.8314 22.0492 98.1951 21.8523 97.3693 21.8523C96.4981 21.8523 95.8049 22.0455 95.2898 22.4318C94.7746 22.8106 94.4337 23.2879 94.267 23.8636L89.7898 23.5C90.017 22.4394 90.464 21.5227 91.1307 20.75C91.7973 19.9697 92.6572 19.3712 93.7102 18.9545C94.7708 18.5303 95.9981 18.3182 97.392 18.3182C98.3617 18.3182 99.2898 18.4318 100.176 18.6591C101.07 18.8864 101.862 19.2386 102.551 19.7159C103.248 20.1932 103.797 20.8068 104.199 21.5568C104.6 22.2992 104.801 23.1894 104.801 24.2273V36H100.21V33.5795H100.074C99.7936 34.125 99.4186 34.6061 98.9489 35.0227C98.4792 35.4318 97.9148 35.7538 97.2557 35.9886C96.5966 36.2159 95.8352 36.3295 94.9716 36.3295ZM96.358 32.9886C97.0701 32.9886 97.6989 32.8485 98.2443 32.5682C98.7898 32.2803 99.2178 31.8939 99.5284 31.4091C99.839 30.9242 99.9943 30.375 99.9943 29.7614V27.9091C99.8428 28.0076 99.6345 28.0985 99.3693 28.1818C99.1117 28.2576 98.8201 28.3295 98.4943 28.3977C98.1686 28.4583 97.8428 28.5152 97.517 28.5682C97.1913 28.6136 96.8958 28.6553 96.6307 28.6932C96.0625 28.7765 95.5663 28.9091 95.142 29.0909C94.7178 29.2727 94.3883 29.5189 94.1534 29.8295C93.9186 30.1326 93.8011 30.5114 93.8011 30.9659C93.8011 31.625 94.0398 32.1288 94.517 32.4773C95.0019 32.8182 95.6155 32.9886 96.358 32.9886ZM123.08 23.5227L118.648 23.7955C118.572 23.4167 118.409 23.0758 118.159 22.7727C117.909 22.4621 117.58 22.2159 117.17 22.0341C116.769 21.8447 116.288 21.75 115.727 21.75C114.977 21.75 114.345 21.9091 113.83 22.2273C113.314 22.5379 113.057 22.9545 113.057 23.4773C113.057 23.8939 113.223 24.2462 113.557 24.5341C113.89 24.822 114.462 25.053 115.273 25.2273L118.432 25.8636C120.129 26.2121 121.394 26.7727 122.227 27.5455C123.061 28.3182 123.477 29.3333 123.477 30.5909C123.477 31.7348 123.14 32.7386 122.466 33.6023C121.799 34.4659 120.883 35.1402 119.716 35.625C118.557 36.1023 117.22 36.3409 115.705 36.3409C113.394 36.3409 111.553 35.8598 110.182 34.8977C108.818 33.928 108.019 32.6098 107.784 30.9432L112.545 30.6932C112.689 31.3977 113.038 31.9356 113.591 32.3068C114.144 32.6705 114.852 32.8523 115.716 32.8523C116.564 32.8523 117.246 32.6894 117.761 32.3636C118.284 32.0303 118.549 31.6023 118.557 31.0795C118.549 30.6402 118.364 30.2803 118 30C117.636 29.7121 117.076 29.4924 116.318 29.3409L113.295 28.7386C111.591 28.3977 110.322 27.8068 109.489 26.9659C108.663 26.125 108.25 25.053 108.25 23.75C108.25 22.6288 108.553 21.6629 109.159 20.8523C109.773 20.0417 110.633 19.4167 111.739 18.9773C112.852 18.5379 114.155 18.3182 115.648 18.3182C117.852 18.3182 119.587 18.7841 120.852 19.7159C122.125 20.6477 122.867 21.9167 123.08 23.5227ZM131.366 25.9091V36H126.526V12.7273H131.23V21.625H131.435C131.829 20.5947 132.465 19.7879 133.344 19.2045C134.223 18.6136 135.325 18.3182 136.651 18.3182C137.863 18.3182 138.92 18.5833 139.821 19.1136C140.73 19.6364 141.435 20.3902 141.935 21.375C142.442 22.3523 142.692 23.5227 142.685 24.8864V36H137.844V25.75C137.851 24.6742 137.579 23.8371 137.026 23.2386C136.48 22.6402 135.715 22.3409 134.73 22.3409C134.071 22.3409 133.488 22.4811 132.98 22.7614C132.48 23.0417 132.086 23.4508 131.798 23.9886C131.518 24.5189 131.374 25.1591 131.366 25.9091ZM146.585 36V12.7273H155.903C157.616 12.7273 159.044 12.9811 160.188 13.4886C161.331 13.9962 162.191 14.7008 162.767 15.6023C163.343 16.4962 163.631 17.5265 163.631 18.6932C163.631 19.6023 163.449 20.4015 163.085 21.0909C162.722 21.7727 162.222 22.3333 161.585 22.7727C160.956 23.2045 160.237 23.5114 159.426 23.6932V23.9205C160.313 23.9583 161.142 24.2083 161.915 24.6705C162.695 25.1326 163.328 25.7803 163.812 26.6136C164.297 27.4394 164.54 28.4242 164.54 29.5682C164.54 30.803 164.233 31.9053 163.619 32.875C163.013 33.8371 162.116 34.5985 160.926 35.1591C159.737 35.7197 158.271 36 156.528 36H146.585ZM151.506 31.9773H155.517C156.888 31.9773 157.888 31.7159 158.517 31.1932C159.146 30.6629 159.46 29.9583 159.46 29.0795C159.46 28.4356 159.305 27.8674 158.994 27.375C158.684 26.8826 158.241 26.4962 157.665 26.2159C157.097 25.9356 156.419 25.7955 155.631 25.7955H151.506V31.9773ZM151.506 22.4659H155.153C155.828 22.4659 156.426 22.3485 156.949 22.1136C157.479 21.8712 157.896 21.5303 158.199 21.0909C158.509 20.6515 158.665 20.125 158.665 19.5114C158.665 18.6705 158.366 17.9924 157.767 17.4773C157.176 16.9621 156.335 16.7045 155.244 16.7045H151.506V22.4659ZM172.628 36.3295C171.514 36.3295 170.522 36.1364 169.651 35.75C168.779 35.3561 168.09 34.7765 167.582 34.0114C167.082 33.2386 166.832 32.2765 166.832 31.125C166.832 30.1553 167.01 29.3409 167.366 28.6818C167.723 28.0227 168.207 27.4924 168.821 27.0909C169.435 26.6894 170.132 26.3864 170.912 26.1818C171.7 25.9773 172.526 25.8333 173.389 25.75C174.404 25.6439 175.223 25.5455 175.844 25.4545C176.465 25.3561 176.916 25.2121 177.196 25.0227C177.476 24.8333 177.616 24.553 177.616 24.1818V24.1136C177.616 23.3939 177.389 22.8371 176.935 22.4432C176.488 22.0492 175.851 21.8523 175.026 21.8523C174.154 21.8523 173.461 22.0455 172.946 22.4318C172.431 22.8106 172.09 23.2879 171.923 23.8636L167.446 23.5C167.673 22.4394 168.12 21.5227 168.787 20.75C169.454 19.9697 170.313 19.3712 171.366 18.9545C172.427 18.5303 173.654 18.3182 175.048 18.3182C176.018 18.3182 176.946 18.4318 177.832 18.6591C178.726 18.8864 179.518 19.2386 180.207 19.7159C180.904 20.1932 181.454 20.8068 181.855 21.5568C182.257 22.2992 182.457 23.1894 182.457 24.2273V36H177.866V33.5795H177.73C177.45 34.125 177.075 34.6061 176.605 35.0227C176.135 35.4318 175.571 35.7538 174.912 35.9886C174.253 36.2159 173.491 36.3295 172.628 36.3295ZM174.014 32.9886C174.726 32.9886 175.355 32.8485 175.901 32.5682C176.446 32.2803 176.874 31.8939 177.185 31.4091C177.495 30.9242 177.651 30.375 177.651 29.7614V27.9091C177.499 28.0076 177.291 28.0985 177.026 28.1818C176.768 28.2576 176.476 28.3295 176.151 28.3977C175.825 28.4583 175.499 28.5152 175.173 28.5682C174.848 28.6136 174.552 28.6553 174.287 28.6932C173.719 28.7765 173.223 28.9091 172.798 29.0909C172.374 29.2727 172.045 29.5189 171.81 29.8295C171.575 30.1326 171.457 30.5114 171.457 30.9659C171.457 31.625 171.696 32.1288 172.173 32.4773C172.658 32.8182 173.272 32.9886 174.014 32.9886ZM191.054 25.9091V36H186.213V18.5455H190.827V21.625H191.031C191.418 20.6098 192.065 19.8068 192.974 19.2159C193.884 18.6174 194.986 18.3182 196.281 18.3182C197.493 18.3182 198.55 18.5833 199.452 19.1136C200.353 19.6439 201.054 20.4015 201.554 21.3864C202.054 22.3636 202.304 23.5303 202.304 24.8864V36H197.463V25.75C197.471 24.6818 197.198 23.8485 196.645 23.25C196.092 22.6439 195.33 22.3409 194.361 22.3409C193.709 22.3409 193.134 22.4811 192.634 22.7614C192.141 23.0417 191.755 23.4508 191.474 23.9886C191.202 24.5189 191.062 25.1591 191.054 25.9091ZM210.506 30.9773L210.517 25.1705H211.222L216.812 18.5455H222.369L214.858 27.3182H213.71L210.506 30.9773ZM206.119 36V12.7273H210.96V36H206.119ZM217.028 36L211.892 28.3977L215.119 24.9773L222.699 36H217.028Z" fill="#252424"/>
<path fill-rule="evenodd" clip-rule="evenodd" d="M47.4562 36C43.3868 44.2919 34.86 50 25 50C11.1929 50 0 38.8071 0 25C0 11.1929 11.1929 0 25 0C35.6344 0 44.7179 6.63988 48.331 16H32.6244C30.4394 14.1297 27.6016 13 24.5 13C17.5964 13 12 18.5964 12 25.5C12 32.4036 17.5964 38 24.5 38C27.0013 38 29.331 37.2653 31.2851 36H47.4562Z" fill="#252424"/>
<circle cx="24" cy="26" r="10" fill="#252424"/>
<path d="M23.549 32.3636V18.7273H24.4226V32.3636H23.549ZM25.8661 23.2283C25.8235 22.7987 25.6406 22.4648 25.3175 22.2269C24.9943 21.989 24.5558 21.87 24.0018 21.87C23.6254 21.87 23.3075 21.9233 23.0483 22.0298C22.7891 22.1328 22.5902 22.2766 22.4517 22.4613C22.3168 22.646 22.2493 22.8555 22.2493 23.0898C22.2422 23.2852 22.283 23.4556 22.3718 23.6012C22.4641 23.7468 22.5902 23.8729 22.75 23.9794C22.9098 24.0824 23.0945 24.1729 23.304 24.2511C23.5135 24.3256 23.7372 24.3896 23.9751 24.4428L24.9553 24.6772C25.4311 24.7837 25.8679 24.9258 26.2656 25.1033C26.6634 25.2809 27.0078 25.4993 27.299 25.7585C27.5902 26.0178 27.8157 26.3232 27.9755 26.6747C28.1388 27.0263 28.2223 27.4293 28.2259 27.8839C28.2223 28.5515 28.0518 29.1303 27.7145 29.6204C27.3807 30.1069 26.8977 30.4851 26.2656 30.755C25.6371 31.0213 24.8789 31.1545 23.9911 31.1545C23.1104 31.1545 22.3434 31.0195 21.69 30.7496C21.0401 30.4798 20.5323 30.0803 20.1665 29.5511C19.8043 29.0185 19.6143 28.3597 19.5966 27.5749H21.8285C21.8533 27.9407 21.9581 28.2461 22.1428 28.4911C22.331 28.7326 22.5813 28.9155 22.8938 29.0398C23.2099 29.1605 23.5668 29.2209 23.9645 29.2209C24.3551 29.2209 24.6942 29.1641 24.9819 29.0504C25.2731 28.9368 25.4986 28.7788 25.6584 28.5763C25.8182 28.3739 25.8981 28.1413 25.8981 27.8786C25.8981 27.6335 25.8253 27.4276 25.6797 27.2607C25.5376 27.0937 25.3281 26.9517 25.0511 26.8345C24.7777 26.7173 24.4421 26.6108 24.0444 26.5149L22.8565 26.2166C21.9368 25.9929 21.2106 25.6431 20.6779 25.1673C20.1452 24.6914 19.8807 24.0504 19.8842 23.2443C19.8807 22.5838 20.0565 22.0067 20.4116 21.5131C20.7702 21.0195 21.2621 20.6342 21.8871 20.3572C22.5121 20.0803 23.2223 19.9418 24.0178 19.9418C24.8274 19.9418 25.5341 20.0803 26.1378 20.3572C26.745 20.6342 27.2173 21.0195 27.5547 21.5131C27.892 22.0067 28.0661 22.5785 28.0767 23.2283H25.8661Z" fill="#1E8903"/>
</svg>
