<svg width="145" height="45" viewBox="0 0 145 45" fill="none" xmlns="http://www.w3.org/2000/svg">
<path d="M72.9176 19.6562H69.1847C69.1165 19.1733 68.9773 18.7443 68.767 18.3693C68.5568 17.9886 68.2869 17.6648 67.9574 17.3977C67.6278 17.1307 67.2472 16.9261 66.8153 16.7841C66.3892 16.642 65.9261 16.571 65.4261 16.571C64.5227 16.571 63.7358 16.7955 63.0653 17.2443C62.3949 17.6875 61.875 18.3352 61.5057 19.1875C61.1364 20.0341 60.9517 21.0625 60.9517 22.2727C60.9517 23.517 61.1364 24.5625 61.5057 25.4091C61.8807 26.2557 62.4034 26.8949 63.0739 27.3267C63.7443 27.7585 64.5199 27.9744 65.4006 27.9744C65.8949 27.9744 66.3523 27.9091 66.7727 27.7784C67.1989 27.6477 67.5767 27.4574 67.9062 27.2074C68.2358 26.9517 68.5085 26.642 68.7244 26.2784C68.946 25.9148 69.0994 25.5 69.1847 25.0341L72.9176 25.0511C72.821 25.8523 72.5795 26.625 72.1932 27.3693C71.8125 28.108 71.2983 28.7699 70.6506 29.3551C70.0085 29.9347 69.2415 30.3949 68.3494 30.7358C67.4631 31.071 66.4602 31.2386 65.3409 31.2386C63.7841 31.2386 62.392 30.8864 61.1648 30.1818C59.9432 29.4773 58.9773 28.4574 58.267 27.1222C57.5625 25.7869 57.2102 24.1705 57.2102 22.2727C57.2102 20.3693 57.5682 18.75 58.2841 17.4148C59 16.0795 59.9716 15.0625 61.1989 14.3636C62.4261 13.6591 63.8068 13.3068 65.3409 13.3068C66.3523 13.3068 67.2898 13.4489 68.1534 13.733C69.0227 14.017 69.7926 14.4318 70.4631 14.9773C71.1335 15.517 71.679 16.179 72.0994 16.9631C72.5256 17.7472 72.7983 18.6449 72.9176 19.6562ZM79.1264 13.5455V31H75.4957V13.5455H79.1264ZM82.0348 31V17.9091H85.6655V31H82.0348ZM83.8587 16.2216C83.3189 16.2216 82.8558 16.0426 82.4695 15.6847C82.0888 15.321 81.8984 14.8864 81.8984 14.3807C81.8984 13.8807 82.0888 13.4517 82.4695 13.0938C82.8558 12.7301 83.3189 12.5483 83.8587 12.5483C84.3984 12.5483 84.8587 12.7301 85.2393 13.0938C85.6257 13.4517 85.8189 13.8807 85.8189 14.3807C85.8189 14.8864 85.6257 15.321 85.2393 15.6847C84.8587 16.0426 84.3984 16.2216 83.8587 16.2216ZM88.5739 31V17.9091H92.0341V20.2188H92.1875C92.4602 19.4517 92.9148 18.8466 93.5511 18.4034C94.1875 17.9602 94.9489 17.7386 95.8352 17.7386C96.733 17.7386 97.4972 17.9631 98.1278 18.4119C98.7585 18.8551 99.179 19.4574 99.3892 20.2188H99.5256C99.7926 19.4688 100.276 18.8693 100.974 18.4205C101.679 17.9659 102.511 17.7386 103.472 17.7386C104.693 17.7386 105.685 18.1278 106.446 18.9062C107.213 19.679 107.597 20.7756 107.597 22.196V31H103.974V22.9119C103.974 22.1847 103.781 21.6392 103.395 21.2756C103.009 20.9119 102.526 20.7301 101.946 20.7301C101.287 20.7301 100.773 20.9403 100.403 21.3608C100.034 21.7756 99.8494 22.3239 99.8494 23.0057V31H96.3295V22.8352C96.3295 22.1932 96.1449 21.6818 95.7756 21.3011C95.4119 20.9205 94.9318 20.7301 94.3352 20.7301C93.9318 20.7301 93.5682 20.8324 93.2443 21.0369C92.9261 21.2358 92.6733 21.517 92.4858 21.8807C92.2983 22.2386 92.2045 22.6591 92.2045 23.142V31H88.5739ZM110.464 31V17.9091H113.925V20.2188H114.078C114.351 19.4517 114.805 18.8466 115.442 18.4034C116.078 17.9602 116.839 17.7386 117.726 17.7386C118.624 17.7386 119.388 17.9631 120.018 18.4119C120.649 18.8551 121.07 19.4574 121.28 20.2188H121.416C121.683 19.4688 122.166 18.8693 122.865 18.4205C123.57 17.9659 124.402 17.7386 125.362 17.7386C126.584 17.7386 127.575 18.1278 128.337 18.9062C129.104 19.679 129.487 20.7756 129.487 22.196V31H125.865V22.9119C125.865 22.1847 125.672 21.6392 125.286 21.2756C124.899 20.9119 124.416 20.7301 123.837 20.7301C123.178 20.7301 122.663 20.9403 122.294 21.3608C121.925 21.7756 121.74 22.3239 121.74 23.0057V31H118.22V22.8352C118.22 22.1932 118.036 21.6818 117.666 21.3011C117.303 20.9205 116.822 20.7301 116.226 20.7301C115.822 20.7301 115.459 20.8324 115.135 21.0369C114.817 21.2358 114.564 21.517 114.376 21.8807C114.189 22.2386 114.095 22.6591 114.095 23.142V31H110.464ZM136.088 31.2472C135.253 31.2472 134.509 31.1023 133.855 30.8125C133.202 30.517 132.685 30.0824 132.304 29.5085C131.929 28.929 131.741 28.2074 131.741 27.3438C131.741 26.6165 131.875 26.0057 132.142 25.5114C132.409 25.017 132.773 24.6193 133.233 24.3182C133.693 24.017 134.216 23.7898 134.801 23.6364C135.392 23.483 136.011 23.375 136.659 23.3125C137.42 23.233 138.034 23.1591 138.5 23.0909C138.966 23.017 139.304 22.9091 139.514 22.767C139.724 22.625 139.83 22.4148 139.83 22.1364V22.0852C139.83 21.5455 139.659 21.1278 139.318 20.8324C138.983 20.5369 138.506 20.3892 137.886 20.3892C137.233 20.3892 136.713 20.5341 136.327 20.8239C135.94 21.108 135.685 21.4659 135.56 21.8977L132.202 21.625C132.372 20.8295 132.707 20.142 133.207 19.5625C133.707 18.9773 134.352 18.5284 135.142 18.2159C135.938 17.8977 136.858 17.7386 137.903 17.7386C138.631 17.7386 139.327 17.8239 139.991 17.9943C140.662 18.1648 141.256 18.429 141.773 18.7869C142.295 19.1449 142.707 19.6051 143.009 20.1676C143.31 20.7244 143.46 21.392 143.46 22.1705V31H140.017V29.1847H139.915C139.705 29.5938 139.423 29.9545 139.071 30.267C138.719 30.5739 138.295 30.8153 137.801 30.9915C137.307 31.1619 136.736 31.2472 136.088 31.2472ZM137.128 28.7415C137.662 28.7415 138.134 28.6364 138.543 28.4261C138.952 28.2102 139.273 27.9205 139.506 27.5568C139.739 27.1932 139.855 26.7812 139.855 26.321V24.9318C139.741 25.0057 139.585 25.0739 139.386 25.1364C139.193 25.1932 138.974 25.2472 138.73 25.2983C138.486 25.3437 138.241 25.3864 137.997 25.4261C137.753 25.4602 137.531 25.4915 137.332 25.5199C136.906 25.5824 136.534 25.6818 136.216 25.8182C135.898 25.9545 135.651 26.1392 135.474 26.3722C135.298 26.5994 135.21 26.8835 135.21 27.2244C135.21 27.7188 135.389 28.0966 135.747 28.358C136.111 28.6136 136.571 28.7415 137.128 28.7415Z" fill="#FBF9F9"/>
<circle cx="22.5" cy="22.5" r="22.5" fill="white"/>
<path d="M42 22C42 17.2935 40.2072 12.7544 36.9688 9.26222C33.7305 5.77001 29.2771 3.57319 24.4715 3.09735C19.6658 2.62151 14.85 3.90052 10.9568 6.68659C7.06367 9.47266 4.37036 13.5675 3.39864 18.1778C2.42692 22.7881 3.24596 27.5858 5.6971 31.6414C8.14823 35.6969 12.057 38.7217 16.6661 40.1298C21.2753 41.5378 26.2568 41.229 30.6456 39.2629C35.0343 37.2969 38.518 33.8137 40.4217 29.4881L35.8199 27.5653C34.405 30.7802 31.8158 33.369 28.554 34.8302C25.2921 36.2914 21.5898 36.521 18.1641 35.4745C14.7385 34.428 11.8334 32.1799 10.0117 29.1657C8.18994 26.1515 7.58121 22.5858 8.30342 19.1593C9.02562 15.7328 11.0274 12.6894 13.9208 10.6187C16.8143 8.54803 20.3936 7.59745 23.9653 7.9511C27.5369 8.30476 30.8468 9.93748 33.2536 12.533C35.6604 15.1285 36.9929 18.502 36.9929 22H42Z" fill="#612E09"/>
<path d="M22.5002 14.5833C18.1278 14.5833 14.5835 18.1276 14.5835 22.5C14.5835 26.8724 18.1278 30.4167 22.5002 30.4167C26.8725 30.4167 30.4168 26.8724 30.4168 22.5C30.4168 18.1276 26.8725 14.5833 22.5002 14.5833ZM22.5002 28.3737C19.254 28.3737 16.6265 25.7468 16.6265 22.5C16.6265 19.2539 19.2534 16.6264 22.5002 16.6264C25.7463 16.6264 28.3738 19.2532 28.3738 22.5C28.3738 25.7462 25.747 28.3737 22.5002 28.3737ZM22.5002 18.414C20.2436 18.414 18.4141 20.2434 18.4141 22.5C18.4141 24.7566 20.2436 26.586 22.5002 26.586C24.7567 26.586 26.5862 24.7566 26.5862 22.5C26.5862 20.2434 24.7567 18.414 22.5002 18.414ZM22.5002 24.543C21.3736 24.543 20.4572 23.6265 20.4572 22.5C20.4572 21.3735 21.3736 20.457 22.5002 20.457C23.6267 20.457 24.5432 21.3735 24.5432 22.5C24.5432 23.6265 23.6267 24.543 22.5002 24.543Z" fill="#612E09"/>
</svg>
