<svg width="178" height="50" viewBox="0 0 178 50" fill="none" xmlns="http://www.w3.org/2000/svg">
<path d="M69.0227 36V12.7273H84.4318V16.7841H73.9432V22.3295H83.4091V26.3864H73.9432V36H69.0227ZM97.75 28.5682V18.5455H102.591V36H97.9432V32.8295H97.7614C97.3674 33.8523 96.7121 34.6742 95.7955 35.2955C94.8864 35.9167 93.7765 36.2273 92.4659 36.2273C91.2992 36.2273 90.2727 35.9621 89.3864 35.4318C88.5 34.9015 87.8068 34.1477 87.3068 33.1705C86.8144 32.1932 86.5644 31.0227 86.5568 29.6591V18.5455H91.3977V28.7955C91.4053 29.8258 91.6818 30.6402 92.2273 31.2386C92.7727 31.8371 93.5038 32.1364 94.4205 32.1364C95.0038 32.1364 95.5492 32.0038 96.0568 31.7386C96.5644 31.4659 96.9735 31.0644 97.2841 30.5341C97.6023 30.0038 97.7576 29.3485 97.75 28.5682ZM106.463 36V18.5455H111.156V21.5909H111.338C111.656 20.5076 112.19 19.6894 112.94 19.1364C113.69 18.5758 114.554 18.2955 115.531 18.2955C115.774 18.2955 116.035 18.3106 116.315 18.3409C116.596 18.3712 116.842 18.4129 117.054 18.4659V22.7614C116.827 22.6932 116.512 22.6326 116.111 22.5795C115.709 22.5265 115.342 22.5 115.009 22.5C114.296 22.5 113.66 22.6553 113.099 22.9659C112.546 23.2689 112.107 23.6932 111.781 24.2386C111.463 24.7841 111.304 25.4129 111.304 26.125V36H106.463ZM124.398 25.9091V36H119.557V18.5455H124.17V21.625H124.375C124.761 20.6098 125.409 19.8068 126.318 19.2159C127.227 18.6174 128.33 18.3182 129.625 18.3182C130.837 18.3182 131.894 18.5833 132.795 19.1136C133.697 19.6439 134.398 20.4015 134.898 21.3864C135.398 22.3636 135.648 23.5303 135.648 24.8864V36H130.807V25.75C130.814 24.6818 130.542 23.8485 129.989 23.25C129.436 22.6439 128.674 22.3409 127.705 22.3409C127.053 22.3409 126.477 22.4811 125.977 22.7614C125.485 23.0417 125.098 23.4508 124.818 23.9886C124.545 24.5189 124.405 25.1591 124.398 25.9091ZM139.463 36V18.5455H144.304V36H139.463ZM141.895 16.2955C141.175 16.2955 140.558 16.0568 140.043 15.5795C139.535 15.0947 139.281 14.5152 139.281 13.8409C139.281 13.1742 139.535 12.6023 140.043 12.125C140.558 11.6402 141.175 11.3977 141.895 11.3977C142.615 11.3977 143.228 11.6402 143.736 12.125C144.251 12.6023 144.509 13.1742 144.509 13.8409C144.509 14.5152 144.251 15.0947 143.736 15.5795C143.228 16.0568 142.615 16.2955 141.895 16.2955ZM157.466 18.5455V22.1818H146.955V18.5455H157.466ZM149.341 14.3636H154.182V30.6364C154.182 31.0833 154.25 31.4318 154.386 31.6818C154.523 31.9242 154.712 32.0947 154.955 32.1932C155.205 32.2917 155.492 32.3409 155.818 32.3409C156.045 32.3409 156.273 32.322 156.5 32.2841C156.727 32.2386 156.902 32.2045 157.023 32.1818L157.784 35.7841C157.542 35.8598 157.201 35.947 156.761 36.0455C156.322 36.1515 155.788 36.2159 155.159 36.2386C153.992 36.2841 152.97 36.1288 152.091 35.7727C151.22 35.4167 150.542 34.8636 150.057 34.1136C149.572 33.3636 149.333 32.4167 149.341 31.2727V14.3636ZM165.597 36.3295C164.483 36.3295 163.491 36.1364 162.619 35.75C161.748 35.3561 161.059 34.7765 160.551 34.0114C160.051 33.2386 159.801 32.2765 159.801 31.125C159.801 30.1553 159.979 29.3409 160.335 28.6818C160.691 28.0227 161.176 27.4924 161.79 27.0909C162.403 26.6894 163.1 26.3864 163.881 26.1818C164.669 25.9773 165.494 25.8333 166.358 25.75C167.373 25.6439 168.191 25.5455 168.812 25.4545C169.434 25.3561 169.884 25.2121 170.165 25.0227C170.445 24.8333 170.585 24.553 170.585 24.1818V24.1136C170.585 23.3939 170.358 22.8371 169.903 22.4432C169.456 22.0492 168.82 21.8523 167.994 21.8523C167.123 21.8523 166.43 22.0455 165.915 22.4318C165.4 22.8106 165.059 23.2879 164.892 23.8636L160.415 23.5C160.642 22.4394 161.089 21.5227 161.756 20.75C162.422 19.9697 163.282 19.3712 164.335 18.9545C165.396 18.5303 166.623 18.3182 168.017 18.3182C168.987 18.3182 169.915 18.4318 170.801 18.6591C171.695 18.8864 172.487 19.2386 173.176 19.7159C173.873 20.1932 174.422 20.8068 174.824 21.5568C175.225 22.2992 175.426 23.1894 175.426 24.2273V36H170.835V33.5795H170.699C170.419 34.125 170.044 34.6061 169.574 35.0227C169.104 35.4318 168.54 35.7538 167.881 35.9886C167.222 36.2159 166.46 36.3295 165.597 36.3295ZM166.983 32.9886C167.695 32.9886 168.324 32.8485 168.869 32.5682C169.415 32.2803 169.843 31.8939 170.153 31.4091C170.464 30.9242 170.619 30.375 170.619 29.7614V27.9091C170.468 28.0076 170.259 28.0985 169.994 28.1818C169.737 28.2576 169.445 28.3295 169.119 28.3977C168.794 28.4583 168.468 28.5152 168.142 28.5682C167.816 28.6136 167.521 28.6553 167.256 28.6932C166.688 28.7765 166.191 28.9091 165.767 29.0909C165.343 29.2727 165.013 29.5189 164.778 29.8295C164.544 30.1326 164.426 30.5114 164.426 30.9659C164.426 31.625 164.665 32.1288 165.142 32.4773C165.627 32.8182 166.241 32.9886 166.983 32.9886Z" fill="#252424"/>
<circle cx="25" cy="25" r="25" fill="#252424"/>
<path d="M10.416 15.4167C10.416 12.6552 12.6546 10.4167 15.416 10.4167H39.5827V16.9856C39.5827 19.747 37.3441 21.9856 34.5827 21.9856H10.416V15.4167Z" fill="white"/>
<path d="M10.416 23.2891H21.8291V34.5833C21.8291 37.3447 19.5905 39.5833 16.8291 39.5833H10.416V23.2891Z" fill="white"/>
<path d="M23.459 34.6951L23.459 24.4297L28.4712 24.4297C31.3059 24.4297 33.6039 26.7277 33.6039 29.5624V29.5624C33.6039 32.3971 31.3059 34.6951 28.4712 34.6951L23.459 34.6951Z" fill="white"/>
</svg>
